<?xml version="1.0" encoding="UTF-8" standalone="no"?><!DOCTYPE svg PUBLIC "-//W3C//DTD SVG 1.1//EN" "http://www.w3.org/Graphics/SVG/1.1/DTD/svg11.dtd"><svg width="100%" height="100%" viewBox="0 0 725 221" version="1.1" xmlns="http://www.w3.org/2000/svg" xmlns:xlink="http://www.w3.org/1999/xlink" xml:space="preserve" xmlns:serif="http://www.serif.com/" style="fill-rule:evenodd;clip-rule:evenodd;stroke-linejoin:round;stroke-miterlimit:2;"><rect id="Prancheta3" x="0" y="0" width="725" height="220.8" style="fill:none;"/><clipPath id="_clip1"><rect x="0" y="0" width="725" height="220.8"/></clipPath><g clip-path="url(#_clip1)"><g id="Layer_2"><g id="Layer_1-2"><rect x="676.1" y="38.9" width="48.9" height="20.5" style="fill:#f7aaac;"/><rect x="665.9" y="49.2" width="20.4" height="49.2" style="fill:#f0666f;"/><path d="M686.3,59.4l-59.1,0l0,-20.5l38.7,0l0,-38.9l20.4,0l0,59.4Z" style="fill:#d91f3d;"/><path d="M606.8,182c-13.6,0.4 -26.8,-5 -36.4,-14.7c-9.6,-9.7 -14.9,-22.8 -14.5,-36.5c-0.3,-13.6 4.9,-26.8 14.5,-36.5c9.5,-9.8 22.7,-15.1 36.4,-14.8c9,-0.1 17.9,2.2 25.6,6.8c7.5,4.3 13.6,10.6 17.5,18.2l-21.4,12.5c-1.9,-4 -4.9,-7.3 -8.8,-9.5c-10.2,-5.8 -23.2,-4.2 -31.7,4c-4.9,5.1 -7.6,12 -7.3,19.1c-0.2,7 2.4,13.8 7.3,18.9c4.8,5 11.6,7.7 18.5,7.5c4.7,0.1 9.3,-1.1 13.4,-3.4c3.9,-2.1 6.9,-5.4 8.8,-9.4l21.6,12.5c-4.2,7.6 -10.4,14 -17.9,18.3c-7.7,4.6 -16.6,7 -25.6,6.9Zm-132.6,-60.3l49.1,0c-1,-5.8 -4.1,-11.1 -8.8,-14.8c-4.4,-3.2 -9.7,-4.9 -15.1,-4.8c-6,-0.3 -11.9,1.6 -16.7,5.1c-4.5,3.7 -7.5,8.8 -8.6,14.5Zm0.4,19.4c3.3,12.2 12.4,18.2 27.2,18.2c8.3,0.5 16.4,-3.1 21.6,-9.7l20,11.6c-9.5,13.9 -23.5,20.8 -42,20.8c-14.2,0.6 -28.1,-4.6 -38.4,-14.5c-9.6,-9.7 -14.9,-23 -14.5,-36.6c-0.4,-13.6 4.8,-26.8 14.3,-36.6c9.6,-9.8 22.9,-15.1 36.6,-14.6c13.2,-0.4 26,5 35,14.7c9.2,9.9 14.2,23 13.8,36.5c-0,3.4 -0.3,6.9 -1,10.3l-72.7,-0.1Zm-31.8,-34.7l-22,0l0,40.3c-0.2,2.7 0.7,5.4 2.5,7.4c2.1,1.7 4.7,2.6 7.3,2.6c4,0.2 7.9,0.2 11.9,0l0,22.4c-17.1,1.9 -29.1,0.3 -36.1,-4.8c-7,-5.2 -10.5,-14.4 -10.5,-27.8l0,-40.2l-16.8,0l0,-24l16.7,0l0,-19.6l25,-7.5l0,27.1l21.8,0l0.2,24Zm-139.8,15.3l49.1,0c-1,-5.8 -4.1,-11.1 -8.8,-14.8c-4.4,-3.2 -9.7,-4.9 -15.2,-4.8c-6,-0.3 -11.9,1.5 -16.7,5.1c-4.5,3.7 -7.5,8.8 -8.5,14.5Zm0.4,19.4c3.3,12.2 12.4,18.2 27.2,18.2c8.3,0.5 16.4,-3.1 21.6,-9.7l20,11.6c-9.5,13.9 -23.5,20.8 -42,20.8c-14.3,0.7 -28.3,-4.6 -38.5,-14.6c-9.6,-9.7 -14.9,-23 -14.5,-36.6c-0.3,-13.6 4.9,-26.9 14.5,-36.6c9.6,-9.8 22.9,-15.1 36.6,-14.6c13.2,-0.4 26,5 35,14.8c9.2,9.9 14.2,23 13.8,36.5c-0,3.4 -0.3,6.9 -1,10.3l-72.7,0Zm-110.4,7.3c10.9,9.9 27.8,9.9 38.7,0c5.1,-5.1 7.9,-12 7.6,-19.2c0.2,-7.1 -2.5,-13.9 -7.6,-18.9c-10.9,-9.9 -27.8,-9.9 -38.8,0c-5.1,4.9 -7.8,11.8 -7.6,18.9c-0.3,7.2 2.5,14.2 7.6,19.2Zm46.4,-66l24.3,0l0,92.3c0,15 -4.9,26.4 -14.8,34.3c-10.1,8 -22.7,12.2 -35.6,11.8c-9.5,0.2 -18.9,-1.9 -27.5,-6c-7.7,-3.9 -14.1,-10 -18.2,-17.7l21.2,-12.2c4.9,9.1 13.3,13.6 25.3,13.6c6.7,0.4 13.4,-1.8 18.5,-6.2c4.7,-4.6 7.2,-11.1 6.8,-17.7l0,-10.5c-7.1,9.8 -18.7,15.5 -30.8,15c-12.9,0.3 -25.4,-5 -34.3,-14.5c-9.2,-9.5 -14.1,-22.3 -13.8,-35.5c-0.2,-13.1 4.8,-25.7 13.9,-35.1c8.8,-9.5 21.2,-14.8 34.1,-14.5c12.1,-0.5 23.7,5 30.8,14.8l0,-11.9Zm-92.7,-44.6l-25,0l0,141.4l25,0l0,-141.4Zm-114.3,112.8c5,5.2 11.9,8 19.1,7.8c7.3,0.2 14.3,-2.6 19.4,-7.8c5.1,-5.2 7.8,-12.4 7.6,-19.7c0.3,-7.3 -2.5,-14.5 -7.6,-19.7c-5.1,-5.1 -12,-7.9 -19.2,-7.7c-7.1,-0.2 -14.1,2.6 -19.1,7.7c-5.1,5.3 -7.8,12.4 -7.5,19.7c-0.3,7.3 2.4,14.4 7.5,19.7l-0.1,0Zm45.8,-68.2l25,0l0,96.8l-25,0l0,-11.3c-7.6,9.5 -19.3,14.7 -31.4,14.1c-12.6,0.1 -24.7,-5.3 -33,-14.8c-9.2,-9.8 -14.1,-22.9 -13.8,-36.3c-0.4,-13.5 4.6,-26.5 13.8,-36.4c8.3,-9.5 20.4,-14.9 33,-14.8c12.1,-0.7 23.9,4.6 31.4,14.2l-0,-11.5Z" style="fill:#3b3a3a;"/></g></g></g></svg>