<?xml version="1.0" encoding="UTF-8" standalone="no"?>
<!DOCTYPE svg PUBLIC "-//W3C//DTD SVG 1.1//EN" "http://www.w3.org/Graphics/SVG/1.1/DTD/svg11.dtd">
<svg width="100%" height="100%" viewBox="0 0 3021 921" version="1.1" xmlns="http://www.w3.org/2000/svg" xmlns:xlink="http://www.w3.org/1999/xlink" xml:space="preserve" xmlns:serif="http://www.serif.com/" style="fill-rule:evenodd;clip-rule:evenodd;stroke-miterlimit:2;">
    <g transform="matrix(4.166667,0,0,4.166667,0,0)">
        <clipPath id="_clip1">
            <rect x="0" y="0" width="725" height="220.8"/>
        </clipPath>
        <g clip-path="url(#_clip1)">
            <g id="Layer_2" transform="matrix(1,0,0,1,1.061142,-1.063077)">
                <g id="Layer_1-2">
                    <path d="M606.8,182C593.2,182.4 580,177 570.4,167.3C560.8,157.6 555.5,144.5 555.9,130.8C555.6,117.2 560.8,104 570.4,94.3C579.9,84.5 593.1,79.2 606.8,79.5C615.8,79.4 624.7,81.7 632.4,86.3C639.9,90.6 646,96.9 649.9,104.5L628.5,117C626.6,113 623.6,109.7 619.7,107.5C609.5,101.7 596.5,103.3 588,111.5C583.1,116.6 580.4,123.5 580.7,130.6C580.5,137.6 583.1,144.4 588,149.5C592.8,154.5 599.6,157.2 606.5,157C611.2,157.1 615.8,155.9 619.9,153.6C623.8,151.5 626.8,148.2 628.7,144.2L650.3,156.7C646.1,164.3 639.9,170.7 632.4,175C624.7,179.6 615.8,182 606.8,181.9L606.8,182ZM474.1,121.7L523.3,121.7C522.3,115.9 519.2,110.6 514.5,106.9C510.1,103.7 504.8,102 499.4,102.1C493.4,101.8 487.5,103.7 482.7,107.2C478.2,110.9 475.2,116 474.1,121.7ZM474.6,141.1C477.9,153.3 487,159.3 501.8,159.3C510.1,159.8 518.2,156.2 523.4,149.6L543.4,161.2C533.9,175.1 519.9,182 501.4,182C487.2,182.6 473.3,177.4 463,167.5C453.4,157.8 448.1,144.5 448.5,130.9C448.1,117.3 453.3,104.1 462.8,94.3C472.4,84.5 485.7,79.2 499.4,79.7C512.6,79.3 525.4,84.7 534.4,94.4C543.6,104.3 548.6,117.4 548.2,130.9C548.2,134.3 547.9,137.8 547.2,141.2L474.5,141.1L474.6,141.1ZM442.8,106.4L420.8,106.4L420.8,146.7C420.6,149.4 421.5,152.1 423.3,154.1C425.4,155.8 428,156.7 430.6,156.7C434.6,156.9 438.5,156.9 442.5,156.7L442.5,179.1C425.4,181 413.4,179.4 406.4,174.3C399.4,169.1 395.9,159.9 395.9,146.5L395.9,106.3L379.1,106.3L379.1,82.3L395.8,82.3L395.8,62.7L420.8,55.2L420.8,82.3L442.6,82.3L442.8,106.3L442.8,106.4ZM302.9,121.7L352.1,121.7C351.1,115.9 348,110.6 343.3,106.9C338.9,103.7 333.6,102 328.1,102.1C322.1,101.8 316.2,103.6 311.4,107.2C306.9,110.9 303.9,116 302.9,121.7ZM303.4,141.1C306.7,153.3 315.8,159.3 330.6,159.3C338.9,159.8 347,156.2 352.2,149.6L372.2,161.2C362.7,175.1 348.7,182 330.2,182C315.9,182.7 301.9,177.4 291.7,167.4C282.1,157.7 276.8,144.4 277.2,130.8C276.9,117.2 282.1,103.9 291.7,94.2C301.3,84.4 314.6,79.1 328.3,79.6C341.5,79.2 354.3,84.6 363.3,94.4C372.5,104.3 377.5,117.4 377.1,130.9C377.1,134.3 376.8,137.8 376.1,141.2L303.4,141.2L303.4,141.1ZM193,148.4C203.9,158.3 220.8,158.3 231.7,148.4C236.8,143.3 239.6,136.4 239.3,129.2C239.5,122.1 236.8,115.3 231.7,110.3C220.8,100.4 203.9,100.4 192.9,110.3C187.8,115.2 185.1,122.1 185.3,129.2C185,136.4 187.8,143.4 192.9,148.4L193,148.4ZM239.3,82.4L263.7,82.4L263.7,174.7C263.7,189.7 258.8,201.1 248.9,209C238.8,217 226.2,221.2 213.3,220.8C203.8,221 194.4,218.9 185.8,214.8C178.1,210.9 171.7,204.8 167.6,197.1L188.8,184.9C193.7,194 202.1,198.5 214.1,198.5C220.8,198.9 227.5,196.7 232.6,192.3C237.3,187.7 239.8,181.2 239.4,174.6L239.4,164.1C232.3,173.9 220.7,179.6 208.6,179.1C195.7,179.4 183.2,174.1 174.3,164.6C165.1,155.1 160.2,142.3 160.5,129.1C160.3,116 165.3,103.4 174.4,94C183.2,84.5 195.6,79.2 208.5,79.5C220.6,79 232.2,84.5 239.3,94.3L239.3,82.4ZM146.7,37.8L121.7,37.8L121.7,179.2L146.7,179.2L146.7,37.8ZM32.4,150.6C37.4,155.8 44.3,158.6 51.5,158.4C58.8,158.6 65.8,155.8 70.9,150.6C76,145.4 78.7,138.2 78.5,130.9C78.8,123.6 76,116.4 70.9,111.2C65.8,106.1 58.9,103.3 51.7,103.5C44.6,103.3 37.6,106.1 32.6,111.2C27.5,116.5 24.8,123.6 25.1,130.9C24.8,138.2 27.5,145.3 32.6,150.6L32.4,150.6ZM78.2,82.4L103.2,82.4L103.2,179.2L78.2,179.2L78.2,167.9C70.6,177.4 58.9,182.6 46.8,182C34.2,182.1 22.1,176.7 13.8,167.2C4.6,157.4 -0.3,144.3 -0,130.9C-0.4,117.4 4.6,104.4 13.8,94.5C22.1,85 34.2,79.6 46.8,79.7C58.9,79 70.7,84.3 78.2,93.9L78.2,82.4Z" style="fill:white;"/>
                </g>
                <g>
                    <g transform="matrix(1.006298,0,0,0.859186,-4.55295,6.803456)">
                        <rect x="629.3" y="40.1" width="93.6" height="18" style="fill:none;stroke:white;stroke-width:5.44px;"/>
                    </g>
                    <g transform="matrix(0,1.000494,-0.855698,0,717.033395,-627.586555)">
                        <rect x="629.3" y="40.1" width="93.6" height="18" style="fill:none;stroke:white;stroke-width:5.44px;"/>
                    </g>
                    <g>
                        <g transform="matrix(0.268785,0,0,0.26274,-78.423886,-4.507037)">
                            <rect x="2634.072" y="176.576" width="201.399" height="54.241" style="fill:white;"/>
                        </g>
                        <g transform="matrix(0.24,0,0,0.24,-2.175888,-4.089585)">
                            <rect x="2798.609" y="26.831" width="46.332" height="194.332" style="fill:white;"/>
                        </g>
                    </g>
                </g>
            </g>
        </g>
    </g>
    <g id="Prancheta2" transform="matrix(4.166667,0,0,4.166667,0,0)">
        <rect x="0" y="0" width="725" height="220.8" style="fill:none;"/>
    </g>
</svg>
