<svg width="52" height="52" viewBox="0 0 52 52" fill="none" xmlns="http://www.w3.org/2000/svg">
<circle cx="26" cy="26" r="25.25" stroke="#088A66" stroke-width="1.5"/>
<path d="M38.9994 13C38.9994 13 38.3332 13 35.9569 13M35.9569 13C34.7398 22.9058 37.2035 25.4996 34.1313 30.9524C30.1163 38.0786 16.4845 36.1669 16.4845 36.1669M35.9569 13C29.8718 12.9989 22.0916 14.9879 17.7015 21.6679C13.9471 27.3808 16.4845 36.1669 16.4845 36.1669M10.3994 36.1669H16.4845" stroke="#088A66" stroke-width="1.5"/>
<path d="M16.8994 35.1C28.3059 31.85 20.2962 16.9 36.3994 13" stroke="#088A66" stroke-width="1.5"/>
<path d="M23.3994 29.9C25.9994 29.9 28.5994 31.2 31.1994 26" stroke="#088A66" stroke-width="1.5"/>
<path d="M25.9782 23.4018C21.7742 21.8199 23.0937 18.9224 23.0989 17.3309" stroke="#088A66" stroke-width="1.5"/>
</svg>
