<svg width="52" height="52" viewBox="0 0 52 52" fill="none" xmlns="http://www.w3.org/2000/svg">
<path d="M35.4612 31.148C35.3848 30.7263 35.4364 30.2913 35.6095 29.8992C35.7742 29.5147 36.0479 29.1868 36.3966 28.9558C36.7454 28.7248 37.1541 28.6009 37.5725 28.5992H37.6895C38.379 28.5992 39.0403 28.3253 39.5279 27.8377C40.0155 27.3501 40.2895 26.6888 40.2895 25.9992C40.2895 25.3097 40.0155 24.6483 39.5279 24.1607C39.0403 23.6731 38.379 23.3992 37.6895 23.3992H37.4685C37.0501 23.3976 36.6414 23.2736 36.2926 23.0426C35.9439 22.8116 35.6702 22.4837 35.5055 22.0992V21.9952C35.3324 21.6031 35.2808 21.1682 35.3572 20.7465C35.4337 20.3247 35.6348 19.9356 35.9345 19.6292L36.0125 19.5512C36.2542 19.3097 36.446 19.023 36.5768 18.7074C36.7077 18.3917 36.775 18.0534 36.775 17.7117C36.775 17.37 36.7077 17.0317 36.5768 16.7161C36.446 16.4004 36.2542 16.1137 36.0125 15.8722C35.771 15.6305 35.4842 15.4387 35.1686 15.3079C34.853 15.177 34.5146 15.1097 34.173 15.1097C33.8313 15.1097 33.4929 15.177 33.1773 15.3079C32.8617 15.4387 32.5749 15.6305 32.3335 15.8722L32.2555 15.9502C31.9491 16.2499 31.5599 16.451 31.1382 16.5274C30.7165 16.6039 30.2816 16.5523 29.8895 16.3792C29.505 16.2144 29.177 15.9408 28.9461 15.592C28.7151 15.2432 28.5911 14.8345 28.5895 14.4162V14.2992C28.5895 13.6097 28.3155 12.9483 27.8279 12.4607C27.3403 11.9731 26.679 11.6992 25.9895 11.6992C25.2999 11.6992 24.6386 11.9731 24.151 12.4607C23.6634 12.9483 23.3895 13.6097 23.3895 14.2992V14.5202C23.3878 14.9385 23.2638 15.3472 23.0329 15.696C22.8019 16.0448 22.474 16.3184 22.0895 16.4832H21.9855C21.5934 16.6563 21.1584 16.7079 20.7367 16.6314C20.315 16.555 19.9258 16.3539 19.6195 16.0542L19.5415 15.9762C19.3 15.7345 19.0132 15.5427 18.6976 15.4119C18.382 15.281 18.0436 15.2137 17.702 15.2137C17.3603 15.2137 17.0219 15.281 16.7063 15.4119C16.3907 15.5427 16.1039 15.7345 15.8625 15.9762C15.6207 16.2177 15.4289 16.5044 15.2981 16.8201C15.1673 17.1357 15.0999 17.474 15.0999 17.8157C15.0999 18.1574 15.1673 18.4957 15.2981 18.8114C15.4289 19.127 15.6207 19.4137 15.8625 19.6552L15.9405 19.7332C16.2402 20.0396 16.4412 20.4287 16.5177 20.8505C16.5941 21.2722 16.5425 21.7071 16.3695 22.0992C16.2209 22.5032 15.9542 22.8531 15.6041 23.1035C15.2541 23.3539 14.8367 23.4932 14.4065 23.5032H14.2895C13.5999 23.5032 12.9386 23.7771 12.451 24.2647C11.9634 24.7523 11.6895 25.4137 11.6895 26.1032C11.6895 26.7928 11.9634 27.4541 12.451 27.9417C12.9386 28.4293 13.5999 28.7032 14.2895 28.7032H14.5105C14.9288 28.7049 15.3375 28.8288 15.6863 29.0598C16.035 29.2908 16.3087 29.6187 16.4735 30.0032C16.6465 30.3953 16.6981 30.8303 16.6217 31.252C16.5452 31.6737 16.3442 32.0628 16.0445 32.3692L15.9665 32.4472C15.7247 32.6887 15.5329 32.9754 15.4021 33.2911C15.2713 33.6067 15.2039 33.945 15.2039 34.2867C15.2039 34.6284 15.2713 34.9667 15.4021 35.2824C15.5329 35.598 15.7247 35.8848 15.9665 36.1262C16.2079 36.368 16.4947 36.5597 16.8103 36.6906C17.1259 36.8214 17.4643 36.8888 17.806 36.8888C18.1476 36.8888 18.486 36.8214 18.8016 36.6906C19.1172 36.5597 19.404 36.368 19.6455 36.1262L19.7235 36.0482C20.0298 35.7485 20.419 35.5475 20.8407 35.471C21.2624 35.3945 21.6974 35.4462 22.0895 35.6192C22.4934 35.7678 22.8433 36.0344 23.0937 36.3845C23.3441 36.7346 23.4834 37.1519 23.4935 37.5822V37.6992C23.4935 38.3888 23.7674 39.0501 24.255 39.5377C24.7426 40.0253 25.4039 40.2992 26.0935 40.2992C26.783 40.2992 27.4443 40.0253 27.9319 39.5377C28.4195 39.0501 28.6935 38.3888 28.6935 37.6992V37.4782C28.6951 37.0599 28.8191 36.6512 29.0501 36.3024C29.281 35.9536 29.609 35.68 29.9935 35.5152C30.3856 35.3422 30.8205 35.2906 31.2422 35.367C31.6639 35.4435 32.0531 35.6445 32.3595 35.9442L32.4375 36.0222C32.6789 36.264 32.9657 36.4557 33.2813 36.5866C33.5969 36.7174 33.9353 36.7848 34.277 36.7848C34.6186 36.7848 34.957 36.7174 35.2726 36.5866C35.5882 36.4557 35.875 36.264 36.1165 36.0222C36.3582 35.7807 36.55 35.494 36.6808 35.1784C36.8117 34.8627 36.879 34.5244 36.879 34.1827C36.879 33.841 36.8117 33.5027 36.6808 33.1871C36.55 32.8714 36.3582 32.5847 36.1165 32.3432L36.0385 32.2652C35.7388 31.9588 35.5377 31.5697 35.4612 31.148Z" stroke="#0062B5" stroke-width="1.5" stroke-linecap="round" stroke-linejoin="round"/>
<path d="M25.9996 29.8957C28.1535 29.8957 29.8996 28.1496 29.8996 25.9957C29.8996 23.8418 28.1535 22.0957 25.9996 22.0957C23.8457 22.0957 22.0996 23.8418 22.0996 25.9957C22.0996 28.1496 23.8457 29.8957 25.9996 29.8957Z" stroke="#0062B5" stroke-width="1.5" stroke-linecap="round" stroke-linejoin="round"/>
<circle cx="26" cy="26" r="25.25" stroke="#0062B5" stroke-width="1.5"/>
</svg>
