<svg width="89" height="89" viewBox="0 0 89 89" fill="none" xmlns="http://www.w3.org/2000/svg">
<circle cx="44.501" cy="44.5" r="44.5" fill="#088A66"/>
<circle cx="45.001" cy="44" r="33.25" stroke="white" stroke-width="1.5"/>
<path d="M61.9996 27C61.9996 27 61.1285 27 58.0209 27M58.0209 27C56.4294 39.9538 59.6511 43.3457 55.6337 50.4762C50.3832 59.7951 32.5571 57.2952 32.5571 57.2952M58.0209 27C50.0634 26.9986 39.8894 29.5995 34.1485 38.335C29.2389 45.8056 32.5571 57.2952 32.5571 57.2952M24.5996 57.2952H32.5571" stroke="white" stroke-width="1.5"/>
<path d="M33.0996 55.9C48.0157 51.65 37.5415 32.1 58.5996 27" stroke="white" stroke-width="1.5"/>
<path d="M41.5996 49.1C44.9996 49.1 48.3996 50.8 51.7996 44" stroke="white" stroke-width="1.5"/>
<path d="M44.9658 40.6018C39.4682 38.5332 41.1938 34.7441 41.2005 32.6629" stroke="white" stroke-width="1.5"/>
</svg>
