<svg width="103" height="103" viewBox="0 0 103 103" fill="none" xmlns="http://www.w3.org/2000/svg">
<g filter="url(#filter0_d_33_17696)">
<circle cx="51.501" cy="49.5" r="44.5" fill="#0062B5"/>
</g>
<path d="M65.9106 56.5611C65.7983 55.9418 65.8741 55.3031 66.1282 54.7273C66.3702 54.1626 66.7721 53.6811 67.2843 53.3419C67.7965 53.0027 68.3967 52.8206 69.011 52.8182H69.1828C70.1954 52.8182 71.1666 52.4159 71.8827 51.6999C72.5987 50.9838 73.001 50.0126 73.001 49C73.001 47.9874 72.5987 47.0162 71.8827 46.3001C71.1666 45.5841 70.1954 45.1818 69.1828 45.1818H68.8582C68.2439 45.1794 67.6437 44.9973 67.1315 44.6581C66.6194 44.3189 66.2175 43.8374 65.9755 43.2727V43.12C65.7214 42.5442 65.6456 41.9054 65.7579 41.2861C65.8702 40.6668 66.1654 40.0954 66.6055 39.6455L66.7201 39.5309C67.0751 39.1763 67.3567 38.7552 67.5488 38.2917C67.741 37.8282 67.8399 37.3313 67.8399 36.8295C67.8399 36.3278 67.741 35.8309 67.5488 35.3674C67.3567 34.9039 67.0751 34.4828 66.7201 34.1282C66.3655 33.7732 65.9444 33.4916 65.4808 33.2994C65.0173 33.1073 64.5205 33.0084 64.0187 33.0084C63.5169 33.0084 63.0201 33.1073 62.5566 33.2994C62.093 33.4916 61.6719 33.7732 61.3173 34.1282L61.2028 34.2427C60.7529 34.6828 60.1814 34.9781 59.5621 35.0904C58.9428 35.2027 58.3041 35.1269 57.7283 34.8727C57.1636 34.6307 56.682 34.2289 56.3428 33.7167C56.0036 33.2045 55.8216 32.6043 55.8192 31.99V31.8182C55.8192 30.8055 55.4169 29.8344 54.7008 29.1183C53.9848 28.4023 53.0136 28 52.001 28C50.9883 28 50.0172 28.4023 49.3011 29.1183C48.5851 29.8344 48.1828 30.8055 48.1828 31.8182V32.1427C48.1803 32.757 47.9983 33.3572 47.6591 33.8694C47.3199 34.3816 46.8384 34.7835 46.2737 35.0255H46.121C45.5452 35.2796 44.9064 35.3554 44.2871 35.2431C43.6678 35.1308 43.0964 34.8356 42.6464 34.3955L42.5319 34.2809C42.1773 33.9259 41.7562 33.6443 41.2927 33.4521C40.8291 33.26 40.3323 33.1611 39.8305 33.1611C39.3288 33.1611 38.8319 33.26 38.3684 33.4521C37.9049 33.6443 37.4838 33.9259 37.1292 34.2809C36.7742 34.6355 36.4925 35.0566 36.3004 35.5201C36.1082 35.9837 36.0093 36.4805 36.0093 36.9823C36.0093 37.484 36.1082 37.9809 36.3004 38.4444C36.4925 38.9079 36.7742 39.329 37.1292 39.6836L37.2437 39.7982C37.6838 40.2481 37.9791 40.8196 38.0913 41.4389C38.2036 42.0582 38.1278 42.6969 37.8737 43.2727C37.6555 43.8659 37.2639 44.3798 36.7498 44.7475C36.2357 45.1152 35.6229 45.3198 34.991 45.3345H34.8192C33.8065 45.3345 32.8353 45.7368 32.1193 46.4529C31.4032 47.1689 31.001 48.1401 31.001 49.1527C31.001 50.1654 31.4032 51.1365 32.1193 51.8526C32.8353 52.5686 33.8065 52.9709 34.8192 52.9709H35.1437C35.758 52.9734 36.3582 53.1554 36.8704 53.4946C37.3826 53.8338 37.7844 54.3153 38.0264 54.88C38.2806 55.4558 38.3564 56.0946 38.2441 56.7139C38.1318 57.3332 37.8365 57.9046 37.3964 58.3545L37.2819 58.4691C36.9269 58.8237 36.6453 59.2448 36.4531 59.7083C36.261 60.1718 36.1621 60.6687 36.1621 61.1705C36.1621 61.6722 36.261 62.1691 36.4531 62.6326C36.6453 63.0961 36.9269 63.5172 37.2819 63.8718C37.6365 64.2268 38.0576 64.5084 38.5211 64.7006C38.9846 64.8927 39.4815 64.9916 39.9832 64.9916C40.485 64.9916 40.9819 64.8927 41.4454 64.7006C41.9089 64.5084 42.33 64.2268 42.6846 63.8718L42.7992 63.7573C43.2491 63.3172 43.8206 63.0219 44.4399 62.9096C45.0592 62.7973 45.6979 62.8731 46.2737 63.1273C46.8669 63.3454 47.3808 63.737 47.7485 64.2512C48.1162 64.7653 48.3207 65.3781 48.3355 66.01V66.1818C48.3355 67.1945 48.7378 68.1656 49.4538 68.8817C50.1699 69.5977 51.1411 70 52.1537 70C53.1663 70 54.1375 69.5977 54.8536 68.8817C55.5696 68.1656 55.9719 67.1945 55.9719 66.1818V65.8573C55.9743 65.243 56.1564 64.6428 56.4956 64.1306C56.8348 63.6184 57.3163 63.2165 57.881 62.9745C58.4568 62.7204 59.0955 62.6446 59.7148 62.7569C60.3341 62.8692 60.9056 63.1644 61.3555 63.6045L61.4701 63.7191C61.8247 64.0741 62.2458 64.3557 62.7093 64.5479C63.1728 64.74 63.6697 64.8389 64.1714 64.8389C64.6732 64.8389 65.17 64.74 65.6336 64.5479C66.0971 64.3557 66.5182 64.0741 66.8728 63.7191C67.2278 63.3645 67.5094 62.9434 67.7016 62.4799C67.8937 62.0163 67.9926 61.5195 67.9926 61.0177C67.9926 60.516 67.8937 60.0191 67.7016 59.5556C67.5094 59.0921 67.2278 58.671 66.8728 58.3164L66.7582 58.2018C66.3181 57.7519 66.0229 57.1804 65.9106 56.5611Z" stroke="white" stroke-width="1.5" stroke-linecap="round" stroke-linejoin="round"/>
<path d="M52.001 55C55.3147 55 58.001 52.3137 58.001 49C58.001 45.6863 55.3147 43 52.001 43C48.6873 43 46.001 45.6863 46.001 49C46.001 52.3137 48.6873 55 52.001 55Z" stroke="white" stroke-width="1.5" stroke-linecap="round" stroke-linejoin="round"/>
<circle cx="52.001" cy="49" r="33.25" stroke="white" stroke-width="1.5"/>
<defs>
<filter id="filter0_d_33_17696" x="0.000976562" y="0" width="103" height="103" filterUnits="userSpaceOnUse" color-interpolation-filters="sRGB">
<feFlood flood-opacity="0" result="BackgroundImageFix"/>
<feColorMatrix in="SourceAlpha" type="matrix" values="0 0 0 0 0 0 0 0 0 0 0 0 0 0 0 0 0 0 127 0" result="hardAlpha"/>
<feOffset dy="2"/>
<feGaussianBlur stdDeviation="3.5"/>
<feComposite in2="hardAlpha" operator="out"/>
<feColorMatrix type="matrix" values="0 0 0 0 0 0 0 0 0 0 0 0 0 0 0 0 0 0 0.25 0"/>
<feBlend mode="normal" in2="BackgroundImageFix" result="effect1_dropShadow_33_17696"/>
<feBlend mode="normal" in="SourceGraphic" in2="effect1_dropShadow_33_17696" result="shape"/>
</filter>
</defs>
</svg>
