<svg width="52" height="52" viewBox="0 0 52 52" fill="none" xmlns="http://www.w3.org/2000/svg">
<circle cx="26" cy="26" r="25.25" stroke="#A36405" stroke-width="1.5"/>
<path d="M32.1748 25.46C32.1748 25.46 32.1748 20.9151 32.1748 18.0351C32.1748 15.1551 36.9684 15.0201 36.9684 18.0351C36.9684 21.0501 36.9684 25.46 36.9684 25.46C36.9684 25.46 36.9684 31.8032 36.9684 34.66C36.9684 37.5169 33.5548 41.0758 30.7948 41.0758C28.0347 41.0758 19.5611 41.0758 19.5611 41.0758C16.1716 41.0758 13 37.7348 13 36.1127C13 34.269 13 31.3916 13 31.3916" stroke="#A36405" stroke-width="1.5"/>
<path d="M32.1755 25.4551C32.1755 25.4551 32.1755 19.7156 32.1755 15.7916C32.1755 11.8675 27.3818 12.0432 27.3818 15.7916C27.3818 19.5399 27.3818 25.4551 27.3818 25.4551" stroke="#A36405" stroke-width="1.5"/>
<path d="M27.3806 25.4535C27.3806 25.4535 27.3806 18.5616 27.3806 13.8498C27.3806 9.13791 22.5869 9.34888 22.5869 13.8498C22.5869 18.3506 22.5869 25.4535 22.5869 25.4535" stroke="#A36405" stroke-width="1.5"/>
<path d="M22.5769 25.4488C22.5769 25.4488 22.5769 19.5763 22.5769 15.5613C22.5769 11.5464 17.7832 11.7262 17.7832 15.5613C17.7832 19.3965 17.7832 25.4488 17.7832 25.4488" stroke="#A36405" stroke-width="1.5"/>
<path d="M17.7937 31.4048C17.7937 31.4048 17.7937 27.2829 17.7937 24.4649C17.7937 21.6469 13 21.7731 13 24.4649C13 27.1567 13 31.4048 13 31.4048" stroke="#A36405" stroke-width="1.5"/>
</svg>
